<mxfile host="65bd71144e">
    <diagram id="S2J4p7LfK0nAhSZh4giq" name="PÃ¡gina-1">
        <mxGraphModel dx="491" dy="432" grid="1" gridSize="10" guides="1" tooltips="1" connect="1" arrows="1" fold="1" page="1" pageScale="1" pageWidth="827" pageHeight="1169" background="#ffffff" math="0" shadow="0">
            <root>
                <mxCell id="0"/>
                <mxCell id="1" parent="0"/>
                <mxCell id="10" value="" style="group" vertex="1" connectable="0" parent="1">
                    <mxGeometry x="79.99999999999997" y="80" width="200.00000000000003" height="200" as="geometry"/>
                </mxCell>
                <mxCell id="2" value="" style="whiteSpace=wrap;html=1;aspect=fixed;" vertex="1" parent="10">
                    <mxGeometry x="2.842170943040401e-14" width="200" height="200" as="geometry"/>
                </mxCell>
                <mxCell id="3" value="Equipe" style="text;html=1;strokeColor=none;fillColor=none;align=center;verticalAlign=middle;whiteSpace=wrap;rounded=0;" vertex="1" parent="10">
                    <mxGeometry x="50.00000000000003" width="100" height="30" as="geometry"/>
                </mxCell>
                <mxCell id="4" value="" style="endArrow=none;html=1;entryX=1;entryY=0.16;entryDx=0;entryDy=0;entryPerimeter=0;exitX=0.007;exitY=0.157;exitDx=0;exitDy=0;exitPerimeter=0;" edge="1" parent="10" source="2" target="2">
                    <mxGeometry width="50" height="50" relative="1" as="geometry">
                        <mxPoint x="2.842170943040401e-14" y="40" as="sourcePoint"/>
                        <mxPoint x="50.00000000000003" y="-10" as="targetPoint"/>
                    </mxGeometry>
                </mxCell>
                <mxCell id="6" value="-nome : String&lt;br&gt;-titulares = Int" style="text;html=1;strokeColor=none;fillColor=none;align=center;verticalAlign=middle;whiteSpace=wrap;rounded=0;" vertex="1" parent="10">
                    <mxGeometry x="10.000000000000028" y="40" width="90" height="30" as="geometry"/>
                </mxCell>
                <mxCell id="7" value="" style="endArrow=none;html=1;entryX=1;entryY=0.16;entryDx=0;entryDy=0;entryPerimeter=0;exitX=0.007;exitY=0.157;exitDx=0;exitDy=0;exitPerimeter=0;" edge="1" parent="10">
                    <mxGeometry width="50" height="50" relative="1" as="geometry">
                        <mxPoint y="89.99999999999997" as="sourcePoint"/>
                        <mxPoint x="198.60000000000005" y="90.6" as="targetPoint"/>
                    </mxGeometry>
                </mxCell>
                <mxCell id="9" value="&lt;span style=&quot;background-color: rgb(255, 255, 255);&quot;&gt;&lt;font color=&quot;#000000&quot;&gt;+gerarId() : Int : boolean&lt;br&gt;&lt;br&gt;+calcularReservas(): Int : boolean&lt;br&gt;&lt;br&gt;+calcularTotalJogadores(): Int : boolean&amp;nbsp;&lt;/font&gt;&lt;/span&gt;" style="text;html=1;strokeColor=none;fillColor=none;align=center;verticalAlign=middle;whiteSpace=wrap;rounded=0;" vertex="1" parent="10">
                    <mxGeometry x="10.000000000000028" y="130" width="180" height="30" as="geometry"/>
                </mxCell>
                <mxCell id="12" value="" style="group" vertex="1" connectable="0" parent="1">
                    <mxGeometry x="390" y="70" width="220" height="220" as="geometry"/>
                </mxCell>
                <mxCell id="13" value="" style="whiteSpace=wrap;html=1;aspect=fixed;" vertex="1" parent="12">
                    <mxGeometry x="3.1263880373444404e-14" width="219.99999999999997" height="219.99999999999997" as="geometry"/>
                </mxCell>
                <mxCell id="14" value="EquipeService" style="text;html=1;strokeColor=none;fillColor=none;align=center;verticalAlign=middle;whiteSpace=wrap;rounded=0;" vertex="1" parent="12">
                    <mxGeometry x="55.00000000000003" width="109.99999999999999" height="33" as="geometry"/>
                </mxCell>
                <mxCell id="15" value="" style="endArrow=none;html=1;entryX=1;entryY=0.16;entryDx=0;entryDy=0;entryPerimeter=0;exitX=0.007;exitY=0.157;exitDx=0;exitDy=0;exitPerimeter=0;" edge="1" parent="12" source="13" target="13">
                    <mxGeometry width="50" height="50" relative="1" as="geometry">
                        <mxPoint x="3.1263880373444404e-14" y="44" as="sourcePoint"/>
                        <mxPoint x="55.00000000000003" y="-11" as="targetPoint"/>
                    </mxGeometry>
                </mxCell>
                <mxCell id="16" value="-equipes [ ] : array&amp;nbsp;" style="text;html=1;strokeColor=none;fillColor=none;align=center;verticalAlign=middle;whiteSpace=wrap;rounded=0;" vertex="1" parent="12">
                    <mxGeometry x="10.999999999999998" y="44" width="131.99999999999997" height="33" as="geometry"/>
                </mxCell>
                <mxCell id="19" value="" style="endArrow=none;html=1;entryX=1;entryY=0.16;entryDx=0;entryDy=0;entryPerimeter=0;exitX=0.007;exitY=0.157;exitDx=0;exitDy=0;exitPerimeter=0;" edge="1" parent="12">
                    <mxGeometry width="50" height="50" relative="1" as="geometry">
                        <mxPoint x="1.2505552149377762e-13" y="87.99999999999997" as="sourcePoint"/>
                        <mxPoint x="218.46" y="88.66" as="targetPoint"/>
                    </mxGeometry>
                </mxCell>
                <mxCell id="20" value="&lt;font color=&quot;#000000&quot;&gt;&lt;span style=&quot;background-color: rgb(255, 255, 255);&quot;&gt;+adicionarEquipes(parametro) : String : void&lt;br&gt;&lt;/span&gt;&lt;br&gt;&lt;span style=&quot;background-color: rgb(255, 255, 255);&quot;&gt;+listarEquipes() : String : boolean&lt;br&gt;&lt;/span&gt;&lt;br&gt;&lt;span style=&quot;background-color: rgb(255, 255, 255);&quot;&gt;+&lt;font style=&quot;font-size: 12px;&quot;&gt;&lt;span style=&quot;font-family: Consolas, &amp;quot;Courier New&amp;quot;, monospace;&quot;&gt;atualizarEquipe&lt;/span&gt;&lt;span style=&quot;font-family: Consolas, &amp;quot;Courier New&amp;quot;, monospace;&quot;&gt;(&lt;/span&gt;&lt;span style=&quot;font-family: Consolas, &amp;quot;Courier New&amp;quot;, monospace; font-style: italic;&quot;&gt;id&lt;/span&gt;&lt;span style=&quot;font-family: Consolas, &amp;quot;Courier New&amp;quot;, monospace;&quot;&gt;, &lt;/span&gt;&lt;span style=&quot;font-family: Consolas, &amp;quot;Courier New&amp;quot;, monospace; font-style: italic;&quot;&gt;nome&lt;/span&gt;&lt;span style=&quot;font-family: Consolas, &amp;quot;Courier New&amp;quot;, monospace;&quot;&gt;, &lt;/span&gt;&lt;span style=&quot;font-family: Consolas, &amp;quot;Courier New&amp;quot;, monospace; font-style: italic;&quot;&gt;titulares&lt;/span&gt;&lt;span style=&quot;font-family: Consolas, &amp;quot;Courier New&amp;quot;, monospace;&quot;&gt;) : Int, String, Int : boolean&lt;/span&gt;&lt;/font&gt;&lt;/span&gt;&lt;/font&gt;" style="text;html=1;strokeColor=none;fillColor=none;align=center;verticalAlign=middle;whiteSpace=wrap;rounded=0;" vertex="1" parent="12">
                    <mxGeometry x="10.999999999999998" y="140" width="197.99999999999997" height="33" as="geometry"/>
                </mxCell>
                <mxCell id="21" style="edgeStyle=none;html=1;entryX=0;entryY=0.5;entryDx=0;entryDy=0;fontSize=12;fontColor=#FFFFFF;endArrow=diamond;endFill=1;exitX=1;exitY=0.5;exitDx=0;exitDy=0;strokeColor=#000000;" edge="1" parent="1" source="2" target="13">
                    <mxGeometry relative="1" as="geometry">
                        <mxPoint x="280" y="226" as="sourcePoint"/>
                    </mxGeometry>
                </mxCell>
                <mxCell id="22" value="&lt;font color=&quot;#000000&quot;&gt;0.. *&lt;/font&gt;" style="text;html=1;strokeColor=none;fillColor=none;align=center;verticalAlign=middle;whiteSpace=wrap;rounded=0;fontSize=12;fontColor=#FFFFFF;" vertex="1" parent="1">
                    <mxGeometry x="280" y="190" width="60" height="30" as="geometry"/>
                </mxCell>
                <mxCell id="23" value="&lt;font color=&quot;#000000&quot;&gt;0..1&lt;/font&gt;" style="text;html=1;align=center;verticalAlign=middle;whiteSpace=wrap;rounded=0;fontSize=12;" vertex="1" parent="1">
                    <mxGeometry x="340" y="190" width="60" height="30" as="geometry"/>
                </mxCell>
            </root>
        </mxGraphModel>
    </diagram>
</mxfile>